# xmcd
#
# Track frame offsets:
#	150
#	19439
#	37885
#	57027
#	74996
#	90937
#	114243
#	132329
#	152218
#	171507
#	189953
#	209095
#	227064
#	243005
#	266311
#	284397
#
# Disc length: 4055 seconds
#
# Revision: 0
# Processed by: cddbd v1.5.2PL0 Copyright (c) Steve Scherf et al.
# Submitted via: audiograbber 1.83.01
#
DISCID=e00fd510
DTITLE=Compilation - CB60399M
DYEAR=2009
DGENRE=Country
TTITLE0=McGraw, Tim - Nothin' To Die For
TTITLE1=Gracin, Joshua - Telluride
TTITLE2=Swift, Taylor - Fearless
TTITLE3=Rich, John - Another You
TTITLE4=Tomlinson, Trent - That's How It Still Ought To Be
TTITLE5=Wynonna - Sing
TTITLE6=Morgan, Craig - God Must Really Love Me
TTITLE7=Brody, Dean - Brothers
TTITLE8=McGraw, Tim - Nothin' To Die For (w/vocals)
TTITLE9=Gracin, Joshua - Telluride (w/vocals)
TTITLE10=Swift, Taylor - Fearless (w/vocals)
TTITLE11=Rich, John - Another You (w/vocals)
TTITLE12=Tomlinson, Trent - That's How It Still Ought To Be (w/vocals)
TTITLE13=Wynonna - Sing (w/vocals)
TTITLE14=Morgan, Craig - God Must Really Love Me (w/vocals)
TTITLE15=Brody, Dean - Brothers (w/vocals)
EXTD=
EXTT0=
EXTT1=
EXTT2=
EXTT3=
EXTT4=
EXTT5=
EXTT6=
EXTT7=
EXTT8=
EXTT9=
EXTT10=
EXTT11=
EXTT12=
EXTT13=
EXTT14=
EXTT15=
PLAYORDER=
